<svg width="19" height="16" viewBox="0 0 19 16" fill="none" xmlns="http://www.w3.org/2000/svg">
<path fill-rule="evenodd" clip-rule="evenodd" d="M1.19207 1.29371C1.2528 1.20061 1.32494 1.12674 1.40437 1.07634C1.4838 1.02594 1.56894 1 1.65494 1C1.74093 1 1.82608 1.02594 1.90551 1.07634C1.98493 1.12674 2.05708 1.20061 2.11781 1.29371L9.50017 12.5848L16.8825 1.29371C16.9433 1.20076 17.0155 1.12703 17.0949 1.07672C17.1743 1.02642 17.2594 1.00052 17.3454 1.00052C17.4314 1.00052 17.5165 1.02642 17.5959 1.07672C17.6753 1.12703 17.7475 1.20076 17.8083 1.29371C17.8691 1.38666 17.9173 1.49701 17.9502 1.61846C17.9831 1.73991 18 1.87008 18 2.00153C18 2.13299 17.9831 2.26315 17.9502 2.3846C17.9173 2.50605 17.8691 2.6164 17.8083 2.70935L9.96304 14.7063C9.90231 14.7994 9.83017 14.8733 9.75074 14.9237C9.67131 14.9741 9.58616 15 9.50017 15C9.41418 15 9.32903 14.9741 9.2496 14.9237C9.17018 14.8733 9.09803 14.7994 9.0373 14.7063L1.19207 2.70935C1.13119 2.61648 1.08288 2.50616 1.04992 2.3847C1.01697 2.26324 1 2.13303 1 2.00153C1 1.87003 1.01697 1.73982 1.04992 1.61836C1.08288 1.4969 1.13119 1.38658 1.19207 1.29371Z" fill="#7C5DFA" stroke="#7C5DFA" stroke-width="2"/>
</svg>
